<?xml version="1.0" standalone="no"?>
<!DOCTYPE svg PUBLIC "-//W3C//DTD SVG 20010904//EN"
 "http://www.w3.org/TR/2001/REC-SVG-20010904/DTD/svg10.dtd">
<svg version="1.0" xmlns="http://www.w3.org/2000/svg"
 width="224.000000pt" height="224.000000pt" viewBox="0 0 224.000000 224.000000"
 preserveAspectRatio="xMidYMid meet">

<g transform="translate(0.000000,224.000000) scale(0.100000,-0.100000)"
fill="#000000" stroke="none">
<path d="M1020 2235 c-8 -2 -49 -8 -90 -15 -296 -46 -586 -237 -752 -496 -72
-112 -133 -268 -160 -409 -17 -90 -17 -300 0 -390 44 -231 151 -434 312 -595
89 -90 221 -185 253 -183 9 1 17 -2 17 -7 0 -25 193 -97 325 -122 90 -17 300
-17 390 0 468 89 818 439 907 907 17 90 17 300 0 390 -88 460 -431 810 -882
901 -71 14 -287 27 -320 19z m-290 -365 c0 -5 -4 -10 -10 -10 -5 0 -10 5 -10
10 0 6 5 10 10 10 6 0 10 -4 10 -10z m330 -29 c0 -6 -4 -13 -10 -16 -5 -3 -10
1 -10 9 0 9 5 16 10 16 6 0 10 -4 10 -9z m880 -91 c0 -5 -2 -10 -4 -10 -3 0
-8 5 -11 10 -3 6 -1 10 4 10 6 0 11 -4 11 -10z m-650 -10 c0 -5 -4 -10 -10
-10 -5 0 -10 5 -10 10 0 6 5 10 10 10 6 0 10 -4 10 -10z m190 0 c0 -5 -7 -10
-15 -10 -8 0 -15 5 -15 10 0 6 7 10 15 10 8 0 15 -4 15 -10z m-410 -110 c32
-4 2 -5 -75 -2 -109 4 -136 2 -163 -12 -17 -9 -32 -14 -32 -12 0 8 43 29 75
37 30 7 90 3 195 -11z m118 -17 c-10 -2 -28 -2 -40 0 -13 2 -5 4 17 4 22 1 32
-1 23 -4z m110 -10 c-15 -2 -42 -2 -60 0 -18 2 -6 4 27 4 33 0 48 -2 33 -4z
m-508 -6 c0 -2 -12 -14 -27 -28 l-28 -24 24 28 c23 25 31 32 31 24z m603 -4
c-13 -2 -33 -2 -45 0 -13 2 -3 4 22 4 25 0 35 -2 23 -4z m422 -3 c3 -5 -1 -10
-10 -10 -9 0 -13 5 -10 10 3 6 8 10 10 10 2 0 7 -4 10 -10z m-617 -20 c97 -11
191 -22 208 -25 37 -6 101 -54 126 -94 18 -28 45 -169 74 -384 19 -147 14
-184 -36 -232 l-31 -30 -257 -3 c-290 -4 -334 0 -362 31 -33 34 -40 84 -59
381 -20 305 -18 326 30 360 31 21 89 21 307 -4z m324 -30 c47 -40 79 -94 77
-127 0 -10 -5 -2 -11 17 -13 47 -43 86 -91 121 -22 16 -35 29 -30 29 6 0 30
-18 55 -40z m-833 -75 c-12 -19 -23 -35 -25 -35 -6 0 14 40 29 58 18 23 16 12
-4 -23z m106 8 c4 -10 16 -160 27 -334 21 -311 21 -316 2 -354 -23 -48 -68
-70 -104 -52 -49 25 -60 63 -76 264 -9 103 -13 216 -11 250 4 56 10 69 67 152
64 92 82 106 95 74z m1145 -83 c0 -5 -4 -10 -10 -10 -5 0 -10 5 -10 10 0 6 5
10 10 10 6 0 10 -4 10 -10z m-333 -52 c-2 -13 -4 -5 -4 17 -1 22 1 32 4 23 2
-10 2 -28 0 -40z m43 22 c0 -5 -2 -10 -4 -10 -3 0 -8 5 -11 10 -3 6 -1 10 4
10 6 0 11 -4 11 -10z m-33 -87 c-3 -10 -5 -4 -5 12 0 17 2 24 5 18 2 -7 2 -21
0 -30z m31 -183 l0 -35 -8 40 c-4 22 -10 67 -13 100 l-6 60 14 -65 c8 -36 14
-81 13 -100z m502 25 c0 -8 -4 -15 -10 -15 -5 0 -10 7 -10 15 0 8 5 15 10 15
6 0 10 -7 10 -15z m-493 -117 c-3 -7 -5 -2 -5 12 0 14 2 19 5 13 2 -7 2 -19 0
-25z m10 -105 c-2 -16 -4 -3 -4 27 0 30 2 43 4 28 2 -16 2 -40 0 -55z m-1487
-63 c0 -5 -4 -10 -10 -10 -5 0 -10 5 -10 10 0 6 5 10 10 10 6 0 10 -4 10 -10z
m1470 -10 c0 -16 -71 -90 -101 -106 -45 -23 -48 -16 -4 9 22 12 53 41 70 64
33 46 35 48 35 33z m-185 -80 c0 -9 -32 -31 -74 -53 l-74 -37 -245 2 c-220 3
-246 5 -256 20 -9 14 -5 23 17 45 26 27 33 28 150 34 67 3 203 5 302 5 153 -1
180 -3 180 -16z m21 -55 c-11 -8 -25 -15 -30 -15 -6 1 0 7 14 15 32 19 40 18
16 0z m-203 -82 c-13 -2 -33 -2 -45 0 -13 2 -3 4 22 4 25 0 35 -2 23 -4z
m-193 -173 c0 -5 -4 -10 -9 -10 -6 0 -13 5 -16 10 -3 6 1 10 9 10 9 0 16 -4
16 -10z m60 -124 c0 -11 -19 -15 -25 -6 -3 5 1 10 9 10 9 0 16 -2 16 -4z m250
-226 c0 -5 -4 -10 -10 -10 -5 0 -10 5 -10 10 0 6 5 10 10 10 6 0 10 -4 10 -10z"/>
<path d="M1095 1286 c-20 -15 -15 -43 10 -52 18 -7 45 12 45 32 0 22 -35 35
-55 20z"/>
<path d="M1360 1276 c-27 -33 18 -72 48 -42 13 13 14 20 6 34 -15 23 -38 26
-54 8z"/>
<path d="M1204 1231 c-2 -2 -4 -12 -4 -22 0 -46 79 -68 100 -28 18 33 5 47
-45 51 -26 2 -48 1 -51 -1z"/>
</g>
</svg>
