<svg width="160" height="40" viewBox="0 0 160 40" fill="none" xmlns="http://www.w3.org/2000/svg" role="img" aria-label="DataCamp logo">
  <rect x="0.5" y="0.5" width="39" height="39" rx="8" fill="#061A14" stroke="#12795A"/>
  <path d="M11.5 12.75C11.5 11.7835 12.2835 11 13.25 11H20.2C23.9555 11 27 14.0445 27 17.8C27 21.5555 23.9555 24.6 20.2 24.6H16.8C14.149 24.6 12 22.451 12 19.8V13.25C12 13.1119 12.1119 13 12.25 13H18.9C20.8882 13 22.5 14.6118 22.5 16.6C22.5 18.5882 20.8882 20.2 18.9 20.2H15.8" stroke="#00FF9F" stroke-width="2.2" stroke-linecap="round" stroke-linejoin="round"/>
  <path d="M31.5 14.2V25.5H29.8V24.2C29 25.2 27.9 25.8 26.4 25.8C23.5 25.8 21.3 23.5 21.3 20.6C21.3 17.7 23.5 15.4 26.4 15.4C27.9 15.4 29 16 29.8 17V14.2H31.5ZM29.8 20.6C29.8 18.6 28.2 17 26.2 17C24.2 17 22.7 18.6 22.7 20.6C22.7 22.6 24.2 24.2 26.2 24.2C28.2 24.2 29.8 22.6 29.8 20.6Z" fill="#D7FDEB"/>
  <path d="M49 19.4C49 23.1 46.5 25.5 42.9 25.5H38.2V14.2H42.9C46.5 14.2 49 16.6 49 19.4ZM47.2 19.4C47.2 17.4 45.7 15.9 42.9 15.9H40V23.8H42.9C45.7 23.8 47.2 22.3 47.2 19.4Z" fill="#D7FDEB"/>
  <path d="M58.7 19.8V25.5H57V24.3C56.3 25.1 55.2 25.7 53.8 25.7C51.7 25.7 50.3 24.6 50.3 22.9C50.3 21.2 51.7 20.1 54.4 20.1H56.9V19.6C56.9 18.2 56.1 17.4 54.5 17.4C53.4 17.4 52.3 17.8 51.6 18.4L50.9 17.1C51.8 16.3 53.2 15.8 54.7 15.8C57.4 15.8 58.7 17.1 58.7 19.8ZM56.9 22.7V21.5H54.5C53 21.5 52.5 22.1 52.5 22.8C52.5 23.7 53.2 24.2 54.4 24.2C55.5 24.2 56.5 23.7 56.9 22.7Z" fill="#D7FDEB"/>
  <path d="M67.4 25C66.9 25.5 66.1 25.7 65.3 25.7C63.3 25.7 62.2 24.6 62.2 22.6V17.4H60.6V15.9H62.2V14H64V15.9H66.8V17.4H64V22.5C64 23.5 64.5 24 65.4 24C65.9 24 66.4 23.8 66.7 23.5L67.4 25Z" fill="#D7FDEB"/>
  <path d="M77 19.8V25.5H75.3V24.3C74.6 25.1 73.5 25.7 72.1 25.7C70 25.7 68.6 24.6 68.6 22.9C68.6 21.2 70 20.1 72.7 20.1H75.2V19.6C75.2 18.2 74.4 17.4 72.8 17.4C71.7 17.4 70.6 17.8 69.9 18.4L69.2 17.1C70.1 16.3 71.5 15.8 73 15.8C75.7 15.8 77 17.1 77 19.8ZM75.2 22.7V21.5H72.8C71.3 21.5 70.8 22.1 70.8 22.8C70.8 23.7 71.5 24.2 72.7 24.2C73.8 24.2 74.8 23.7 75.2 22.7Z" fill="#D7FDEB"/>
</svg>
